<svg width="21" height="20" viewBox="0 0 21 20" fill="none" xmlns="http://www.w3.org/2000/svg">
<path d="M10.4258 0.499798C4.90098 0.542955 0.460188 4.93945 0.502208 10.3187C0.535834 14.6232 3.42926 18.2512 7.41169 19.5071C7.91239 19.5949 8.09337 19.292 8.09135 19.0334C8.08954 18.8021 8.07642 18.1893 8.06591 17.3773C5.28892 17.9863 4.68747 16.0968 4.68747 16.0968C4.2237 14.9761 3.56387 14.6805 3.56387 14.6805C2.65335 14.0838 3.62925 14.0885 3.62925 14.0885C4.63392 14.1484 5.16871 15.0802 5.16871 15.0802C6.07199 16.5626 7.51775 16.1209 8.08745 15.8678C8.17253 15.2368 8.42667 14.8061 8.71059 14.5602C6.48792 14.3339 4.14728 13.5145 4.11813 9.78239C4.10982 8.71926 4.49052 7.84723 5.12685 7.16073C5.01243 6.91544 4.6672 5.92765 5.19421 4.58195C5.19421 4.58195 6.02964 4.31437 7.95192 5.55916C8.75021 5.33648 9.59934 5.22246 10.4493 5.21086C11.2993 5.20918 12.1501 5.30992 12.9518 5.5201C14.8419 4.24553 15.6814 4.50002 15.6814 4.50002C16.2293 5.83733 15.8996 6.8304 15.8015 7.07734C16.4443 7.75385 16.8386 8.61983 16.8469 9.68296C16.8761 13.425 14.5451 14.2668 12.3221 14.5237C12.6744 14.8134 13.004 15.4081 13.0111 16.3209C13.0213 17.6244 13.017 18.6719 13.0195 18.9883C13.0215 19.2436 13.1988 19.547 13.7106 19.4455C17.7013 18.1355 20.5352 14.4604 20.5016 10.1625C20.4596 4.78322 15.9481 0.456659 10.4258 0.499798Z" fill="#212121"/>
</svg>
