<svg width="22" height="22" viewBox="0 0 22 22" fill="none" xmlns="http://www.w3.org/2000/svg">
<path d="M14.7146 0.986813L7.21468 1.01332C3.76345 1.02551 0.974611 3.83413 0.986807 7.28536L1.01331 14.7853C1.0255 18.2365 3.83413 21.0254 7.28535 21.0132L14.7853 20.9867C18.2365 20.9745 21.0254 18.1659 21.0132 14.7146L20.9867 7.21469C20.9745 3.76346 18.1659 0.974618 14.7146 0.986813ZM19.1382 14.7213C19.1467 17.1338 17.1912 19.1032 14.7787 19.1117L7.27873 19.1382C4.86624 19.1467 2.89682 17.1912 2.8883 14.7787L2.8618 7.27874C2.85327 4.86625 4.80882 2.89683 7.22131 2.8883L14.7213 2.8618C17.1337 2.85328 19.1032 4.80883 19.1117 7.22131L19.1382 14.7213Z" fill="black"/>
<path d="M10.9823 6.00003C8.2211 6.00979 5.99027 8.25644 6.00003 11.0177C6.00979 13.7789 8.25643 16.0097 11.0177 16C13.7789 15.9902 16.0097 13.7436 16 10.9823C15.9902 8.2211 13.7436 5.99028 10.9823 6.00003ZM11.011 14.125C9.28855 14.1311 7.8811 12.7335 7.87502 11.011C7.86893 9.28731 9.26647 7.88111 10.989 7.87502C12.7114 7.86893 14.1189 9.26522 14.125 10.989C14.1311 12.7114 12.7335 14.1189 11.011 14.125Z" fill="black"/>
<path d="M16.3583 6.27227C16.7263 6.27097 17.0235 5.97163 17.0222 5.60368C17.0209 5.23572 16.7216 4.93849 16.3536 4.93979C15.9857 4.94109 15.6884 5.24043 15.6897 5.60838C15.691 5.97634 15.9904 6.27357 16.3583 6.27227Z" fill="black"/>
</svg>
